<?xml version="1.0" encoding="utf-8"?>
<!-- Generator: Adobe Adobe Illustrator 24.2.0, SVG Export Plug-In . SVG Version: 6.00 Build 0)  -->
<svg version="1.1" xmlns="http://www.w3.org/2000/svg" xmlns:xlink="http://www.w3.org/1999/xlink" x="0px" y="0px"
	 viewBox="0 0 400 250" style="enable-background:new 0 0 400 250;" xml:space="preserve" preserveAspectRatio="none">
<style type="text/css">
	.st0{fill:#FFFFFF;}
</style>
<g id="Layer_2">
	<rect x="-0.5" y="63" class="st0" width="401" height="188"/>
</g>
<g id="Layer_3">
	<path class="st0" d="M1.47-51.8"/>
	<path class="st0" d="M-0.5,64.75c3.43-2.57,37.91-27.8,42.14-28.51c8.63-1.45,16.27,5.43,21.9,12.13s11.82,14.34,20.53,15.22
		c10.08,1.01,18.68-7.58,28.72-8.93c9.01-1.21,31.99,11.31,51,10.09c11.99-0.77,22.4-14.25,26.75-17.23
		c12.67-8.67,30.04-13.24,43.27-5.44c7.97,4.7,13.14,13.09,20.9,18.14c7.73,5.02,17.81,6.24,26.5,3.19
		c9.15-3.21,17.24-10.87,26.9-10.06c10.5,0.88,18.58,11.68,29.11,11.27c3.92-0.15,8.54-1.89,12.23-3.23
		c16.28-5.92,35.68-5.52,50.54,3.37"/>
</g>
</svg>