<svg height="100%" width="100%" id="svg" viewBox="0 0 1440 400" xmlns="http://www.w3.org/2000/svg" class="transition duration-300 ease-in-out delay-150"><path d="M 0,400 C 0,400 0,200 0,200 C 26.221951682813867,175.78413630553166 52.44390336562773,151.5682726110633 85,162 C 117.55609663437227,172.4317273889367 156.44633822030295,217.5110458612785 201,226 C 245.55366177969705,234.4889541387215 295.7707437531605,206.38754394382278 327,212 C 358.2292562468395,217.61245605617722 370.470686767055,256.9387783634304 401,268 C 431.529313232945,279.0612216365696 480.3465091786194,261.85734260245545 515,243 C 549.6534908213806,224.14265739754455 570.1432765184678,203.63185122674787 606,210 C 641.8567234815322,216.36814877325213 693.0803847475094,249.61525249055305 731,248 C 768.9196152524906,246.38474750944695 793.5351844914943,209.90713881103986 822,207 C 850.4648155085057,204.09286118896014 882.7788772865131,234.7561922652876 917,252 C 951.2211227134869,269.2438077347124 987.3493063624537,273.0680921278097 1022,236 C 1056.6506936375463,198.93190787219032 1089.8238972636723,120.97143922347371 1127,131 C 1164.1761027363277,141.0285607765263 1205.3551045828576,239.04615097829557 1245,246 C 1284.6448954171424,252.95384902170443 1322.755684404898,168.84395686334415 1355,146 C 1387.244315595102,123.15604313665587 1413.6221577975512,161.57802156832793 1440,200 C 1440,200 1440,400 1440,400 Z" stroke="none" stroke-width="0" fill="#abb8c3ff" class="transition-all duration-300 ease-in-out delay-150"></path></svg>